<?xml version="1.0" encoding="UTF-8"?>
<svg width="116px" height="34px" viewBox="0 0 116 34" version="1.1" xmlns="http://www.w3.org/2000/svg" xmlns:xlink="http://www.w3.org/1999/xlink">
    <!-- Generator: Sketch 52.6 (67491) - http://www.bohemiancoding.com/sketch -->
    <title>Download_on_the_App_Store_Badge</title>
    <desc>Created with Sketch.</desc>
    <g id="Page-1" stroke="none" stroke-width="1" fill="none" fill-rule="evenodd">
        <g id="ColdCrypto-Ready" transform="translate(-595.000000, -3468.000000)">
            <g id="Footer" transform="translate(0.000000, 3440.000000)">
                <g id="Group-2" transform="translate(595.000000, 28.000000)">
                    <g id="Download_on_the_App_Store_Badge">
                        <path d="M116,30.5918132 C116,32.4747697 114.506677,34 112.659627,34 L3.34472969,34 C1.49855042,34 0,32.4747697 0,30.5918132 L0,3.4126361 C0,1.53056951 1.49855042,0 3.34472969,0 L112.658755,0 C114.506677,0 115.999129,1.53056951 115.999129,3.4126361 L116,30.5918132 Z" id="Path" fill="#000000"></path>
                        <g id="Group" transform="translate(10.000000, 5.000000)" fill="#FFFFFF">
                            <path d="M15.656,12.1935385 C15.6309545,9.34242308 17.9351364,7.95534615 18.0405,7.89076923 C16.7355455,5.94196154 14.7129091,5.67569231 14.0021364,5.65446154 C12.3033636,5.47134615 10.6555455,6.69565385 9.79018182,6.69565385 C8.90754545,6.69565385 7.57495455,5.67215385 6.13872727,5.70223077 C4.29054545,5.73142308 2.56154545,6.82746154 1.61327273,8.52946154 C-0.343727273,11.9998077 1.11581818,17.0996154 2.99077273,19.9047308 C3.92868182,21.2785385 5.02463636,22.8124615 6.45913636,22.7585 C7.86254545,22.6992308 8.38677273,21.8420385 10.0803636,21.8420385 C11.7584091,21.8420385 12.2506818,22.7585 13.7136818,22.724 C15.2198636,22.6992308 16.1681364,21.344 17.0732273,19.9578077 C18.1570909,18.3831923 18.5923636,16.8324615 18.6096364,16.7528462 C18.5742273,16.7404615 15.6845,15.6108077 15.656,12.1935385 Z" id="Path"></path>
                            <path d="M12.8923636,3.80915385 C13.6471818,2.84226923 14.1636364,1.52684615 14.0202727,0.191961538 C12.9277727,0.2415 11.5615,0.966 10.7747273,1.91165385 C10.0786364,2.74496154 9.45681818,4.11080769 9.61745455,5.39526923 C10.8446818,5.48903846 12.1047273,4.761 12.8923636,3.80915385 Z" id="Path"></path>
                        </g>
                        <g id="Group" transform="translate(36.000000, 15.000000)" fill="#FFFFFF">
                            <path d="M10.0635802,12.0035556 L8.10098765,12.0035556 L7.02592593,8.52888889 L3.2891358,8.52888889 L2.26506173,12.0035556 L0.354320988,12.0035556 L4.05654321,0.174222222 L6.34320988,0.174222222 L10.0635802,12.0035556 Z M6.70185185,7.07111111 L5.72962963,3.98222222 C5.62679012,3.66666667 5.43407407,2.92355556 5.14975309,1.75377778 L5.11518519,1.75377778 C5.00197531,2.25688889 4.81962963,3 4.56901235,3.98222222 L3.61407407,7.07111111 L6.70185185,7.07111111 Z" id="Shape" fill-rule="nonzero"></path>
                            <path d="M19.5844444,7.63377778 C19.5844444,9.08444444 19.2033333,10.2311111 18.4411111,11.0728889 C17.7583951,11.8222222 16.9106173,12.1964444 15.898642,12.1964444 C14.8062963,12.1964444 14.0216049,11.7928889 13.5437037,10.9857778 L13.5091358,10.9857778 L13.5091358,15.4791111 L11.6666667,15.4791111 L11.6666667,6.28177778 C11.6666667,5.36977778 11.6433333,4.43377778 11.5983951,3.47377778 L13.2187654,3.47377778 L13.3216049,4.82577778 L13.3561728,4.82577778 C13.9706173,3.80711111 14.9030864,3.29866667 16.1544444,3.29866667 C17.132716,3.29866667 17.9493827,3.696 18.602716,4.49155556 C19.2577778,5.288 19.5844444,6.33511111 19.5844444,7.63377778 Z M17.7074074,7.70311111 C17.7074074,6.87288889 17.5259259,6.18844444 17.1612346,5.64977778 C16.7628395,5.088 16.2279012,4.80711111 15.557284,4.80711111 C15.102716,4.80711111 14.6896296,4.96355556 14.3206173,5.272 C13.9507407,5.58311111 13.7087654,5.98933333 13.5955556,6.49244444 C13.5385185,6.72711111 13.51,6.91911111 13.51,7.07022222 L13.51,8.49244444 C13.51,9.11288889 13.6949383,9.63644444 14.0648148,10.064 C14.4346914,10.4915556 14.9151852,10.7048889 15.5062963,10.7048889 C16.2002469,10.7048889 16.7403704,10.4293333 17.1266667,9.88 C17.5138272,9.32977778 17.7074074,8.60444444 17.7074074,7.70311111 Z" id="Shape" fill-rule="nonzero"></path>
                            <path d="M29.1225926,7.63377778 C29.1225926,9.08444444 28.7414815,10.2311111 27.9783951,11.0728889 C27.2965432,11.8222222 26.4487654,12.1964444 25.4367901,12.1964444 C24.3444444,12.1964444 23.5597531,11.7928889 23.082716,10.9857778 L23.0481481,10.9857778 L23.0481481,15.4791111 L21.205679,15.4791111 L21.205679,6.28177778 C21.205679,5.36977778 21.1823457,4.43377778 21.1374074,3.47377778 L22.7577778,3.47377778 L22.8606173,4.82577778 L22.8951852,4.82577778 C23.5087654,3.80711111 24.4412346,3.29866667 25.6934568,3.29866667 C26.6708642,3.29866667 27.4875309,3.696 28.1425926,4.49155556 C28.7950617,5.288 29.1225926,6.33511111 29.1225926,7.63377778 Z M27.2455556,7.70311111 C27.2455556,6.87288889 27.0632099,6.18844444 26.6985185,5.64977778 C26.3001235,5.088 25.7669136,4.80711111 25.0954321,4.80711111 C24.64,4.80711111 24.2277778,4.96355556 23.8579012,5.272 C23.4880247,5.58311111 23.2469136,5.98933333 23.1337037,6.49244444 C23.0775309,6.72711111 23.0481481,6.91911111 23.0481481,7.07022222 L23.0481481,8.49244444 C23.0481481,9.11288889 23.2330864,9.63644444 23.6012346,10.064 C23.9711111,10.4906667 24.4516049,10.7048889 25.0444444,10.7048889 C25.7383951,10.7048889 26.2785185,10.4293333 26.6648148,9.88 C27.0519753,9.32977778 27.2455556,8.60444444 27.2455556,7.70311111 Z" id="Shape" fill-rule="nonzero"></path>
                            <path d="M39.7867901,8.68622222 C39.7867901,9.69244444 39.4471605,10.5111111 38.7653086,11.1431111 C38.0160494,11.8337778 36.972963,12.1786667 35.6325926,12.1786667 C34.3950617,12.1786667 33.402963,11.9333333 32.6519753,11.4417778 L33.0788889,9.86222222 C33.8877778,10.3653333 34.7753086,10.6177778 35.7423457,10.6177778 C36.4362963,10.6177778 36.9764198,10.456 37.3644444,10.1342222 C37.7507407,9.81244444 37.9434568,9.38044444 37.9434568,8.84177778 C37.9434568,8.36177778 37.7844444,7.95733333 37.4655556,7.62933333 C37.1483951,7.30133333 36.618642,6.99644444 35.8788889,6.71466667 C33.8653086,5.94222222 32.8593827,4.81066667 32.8593827,3.32266667 C32.8593827,2.35022222 33.2119753,1.55288889 33.9180247,0.932444444 C34.6214815,0.311111111 35.56,0.000888888889 36.7335802,0.000888888889 C37.7801235,0.000888888889 38.6495062,0.188444444 39.3434568,0.562666667 L38.8828395,2.10755556 C38.2346914,1.74488889 37.5018519,1.56355556 36.6817284,1.56355556 C36.0335802,1.56355556 35.5271605,1.728 35.1641975,2.05511111 C34.8574074,2.34755556 34.7035802,2.704 34.7035802,3.12622222 C34.7035802,3.59377778 34.8790123,3.98044444 35.2316049,4.28444444 C35.5383951,4.56533333 36.0958025,4.86933333 36.9046914,5.19733333 C37.8941975,5.60711111 38.6209877,6.08622222 39.0885185,6.63555556 C39.554321,7.18311111 39.7867901,7.86844444 39.7867901,8.68622222 Z" id="Path"></path>
                            <path d="M45.8785185,4.896 L43.8476543,4.896 L43.8476543,9.03733333 C43.8476543,10.0906667 44.2054321,10.6168889 44.922716,10.6168889 C45.2519753,10.6168889 45.5250617,10.5875556 45.7411111,10.5288889 L45.7920988,11.968 C45.4291358,12.1075556 44.9512346,12.1777778 44.3592593,12.1777778 C43.6316049,12.1777778 43.062963,11.9493333 42.6524691,11.4933333 C42.2437037,11.0364444 42.0380247,10.2702222 42.0380247,9.19377778 L42.0380247,4.89422222 L40.8281481,4.89422222 L40.8281481,3.472 L42.0380247,3.472 L42.0380247,1.91022222 L43.8476543,1.34844444 L43.8476543,3.472 L45.8785185,3.472 L45.8785185,4.896 Z" id="Path"></path>
                            <path d="M55.0416049,7.66844444 C55.0416049,8.97955556 54.6769136,10.056 53.9492593,10.8977778 C53.1861728,11.7644444 52.1733333,12.1964444 50.9107407,12.1964444 C49.6939506,12.1964444 48.7251852,11.7813333 48.002716,10.9511111 C47.2802469,10.1208889 46.9190123,9.07288889 46.9190123,7.80977778 C46.9190123,6.488 47.2906173,5.40533333 48.0364198,4.56355556 C48.7804938,3.72088889 49.7846914,3.29955556 51.047284,3.29955556 C52.2640741,3.29955556 53.2432099,3.71466667 53.9820988,4.54577778 C54.6890123,5.352 55.0416049,6.39288889 55.0416049,7.66844444 Z M53.13,7.72977778 C53.13,6.94311111 52.9666667,6.26844444 52.635679,5.70577778 C52.2493827,5.02488889 51.6971605,4.68533333 50.9816049,4.68533333 C50.2409877,4.68533333 49.6783951,5.02577778 49.2920988,5.70577778 C48.9611111,6.26933333 48.7977778,6.95466667 48.7977778,7.76533333 C48.7977778,8.552 48.9611111,9.22666667 49.2920988,9.78844444 C49.6904938,10.4693333 50.247037,10.8088889 50.9651852,10.8088889 C51.668642,10.8088889 52.2208642,10.4622222 52.6192593,9.77066667 C52.9588889,9.19733333 53.13,8.51555556 53.13,7.72977778 Z" id="Shape" fill-rule="nonzero"></path>
                            <path d="M61.0304938,5.14044444 C60.8481481,5.10577778 60.6537037,5.088 60.4497531,5.088 C59.8016049,5.088 59.3003704,5.33955556 58.9477778,5.84355556 C58.6409877,6.288 58.4871605,6.84977778 58.4871605,7.528 L58.4871605,12.0035556 L56.6455556,12.0035556 L56.6628395,6.16 C56.6628395,5.17688889 56.6395062,4.28177778 56.5937037,3.47466667 L58.1985185,3.47466667 L58.2659259,5.10666667 L58.3169136,5.10666667 C58.511358,4.54577778 58.8181481,4.09422222 59.2381481,3.75555556 C59.648642,3.45066667 60.0919753,3.29866667 60.5698765,3.29866667 C60.7401235,3.29866667 60.8939506,3.31111111 61.0304938,3.33333333 L61.0304938,5.14044444 Z" id="Path"></path>
                            <path d="M69.2706173,7.33511111 C69.2706173,7.67466667 69.2490123,7.96088889 69.2032099,8.19466667 L63.6758025,8.19466667 C63.6974074,9.03733333 63.9644444,9.68177778 64.4777778,10.1262222 C64.9435802,10.5235556 65.5459259,10.7226667 66.285679,10.7226667 C67.1040741,10.7226667 67.8507407,10.5884444 68.5222222,10.3191111 L68.8108642,11.6346667 C68.0261728,11.9866667 67.0997531,12.1617778 66.0307407,12.1617778 C64.7448148,12.1617778 63.7354321,11.7724444 63.0008642,10.9946667 C62.2680247,10.2168889 61.9007407,9.17244444 61.9007407,7.86222222 C61.9007407,6.576 62.2420988,5.50488889 62.925679,4.65066667 C63.6412346,3.73866667 64.6082716,3.28266667 65.8250617,3.28266667 C67.0202469,3.28266667 67.9250617,3.73866667 68.5395062,4.65066667 C69.0260494,5.37511111 69.2706173,6.27111111 69.2706173,7.33511111 Z M67.5137037,6.84355556 C67.5258025,6.28177778 67.405679,5.79644444 67.1559259,5.38666667 C66.837037,4.85955556 66.347037,4.59644444 65.6876543,4.59644444 C65.0853086,4.59644444 64.5953086,4.85333333 64.2211111,5.36888889 C63.914321,5.77866667 63.7319753,6.27022222 63.6758025,6.84266667 L67.5137037,6.84266667 L67.5137037,6.84355556 Z" id="Shape" fill-rule="nonzero"></path>
                        </g>
                        <g id="Group" transform="translate(38.000000, 6.000000)" fill="#FFFFFF">
                            <path d="M5.28417722,3.507875 C5.28417722,4.53775 4.97586076,5.313 4.36010127,5.833625 C3.78975949,6.314 2.97922785,6.554625 1.92937975,6.554625 C1.40882278,6.554625 0.963379747,6.531875 0.59043038,6.486375 L0.59043038,0.85925 C1.07692405,0.7805 1.60097468,0.74025 2.16694937,0.74025 C3.16701266,0.74025 3.92077215,0.958125 4.42910127,1.393875 C4.99856962,1.8865 5.28417722,2.590875 5.28417722,3.507875 Z M4.31905063,3.53325 C4.31905063,2.865625 4.14262025,2.35375 3.78975949,1.99675 C3.43689873,1.640625 2.92158228,1.462125 2.24293671,1.462125 C1.95470886,1.462125 1.70927848,1.481375 1.50577215,1.521625 L1.50577215,5.7995 C1.61844304,5.817 1.82456962,5.824875 2.1241519,5.824875 C2.82463291,5.824875 3.36527848,5.62975 3.74608861,5.2395 C4.12689873,4.84925 4.31905063,4.2805 4.31905063,3.53325 Z" id="Shape" fill-rule="nonzero"></path>
                            <path d="M10.4015316,4.407375 C10.4015316,5.04175 10.2207342,5.5615 9.85913924,5.96925 C9.48007595,6.388375 8.97786076,6.5975 8.35074684,6.5975 C7.74634177,6.5975 7.26508861,6.397125 6.90611392,5.994625 C6.54801266,5.593 6.36896203,5.086375 6.36896203,4.475625 C6.36896203,3.836875 6.55325316,3.31275 6.92358228,2.905875 C7.29391139,2.499 7.79175949,2.295125 8.41887342,2.295125 C9.02327848,2.295125 9.50889873,2.4955 9.87660759,2.897125 C10.2259747,3.287375 10.4015316,3.791375 10.4015316,4.407375 Z M9.45212658,4.437125 C9.45212658,4.0565 9.37002532,3.730125 9.2066962,3.458 C9.0145443,3.129 8.74116456,2.9645 8.38568354,2.9645 C8.01797468,2.9645 7.73848101,3.129 7.54632911,3.458 C7.38212658,3.730125 7.30089873,4.06175 7.30089873,4.45375 C7.30089873,4.834375 7.383,5.16075 7.54632911,5.432875 C7.74459494,5.761875 8.02059494,5.926375 8.37694937,5.926375 C8.72631646,5.926375 9.00056962,5.75925 9.19796203,5.424125 C9.36740506,5.14675 9.45212658,4.81775 9.45212658,4.437125 Z" id="Shape" fill-rule="nonzero"></path>
                            <path d="M17.2631013,2.379125 L15.9748101,6.503875 L15.1363291,6.503875 L14.6026709,4.71275 C14.4672911,4.265625 14.3572405,3.821125 14.2716456,3.380125 L14.2550506,3.380125 C14.1755696,3.833375 14.065519,4.277 13.9240253,4.71275 L13.3571772,6.503875 L12.5090886,6.503875 L11.2976582,2.379125 L12.2383291,2.379125 L12.7038608,4.34 C12.8165316,4.80375 12.9091139,5.245625 12.9833544,5.663875 L12.9999494,5.663875 C13.0680759,5.319125 13.1807468,4.879875 13.3397089,4.34875 L13.9240253,2.38 L14.6699241,2.38 L15.2297848,4.30675 C15.3651646,4.776625 15.4752152,5.229 15.5599367,5.66475 L15.5852658,5.66475 C15.6472785,5.240375 15.7407342,4.788 15.8647595,4.30675 L16.3643544,2.38 L17.2631013,2.38 L17.2631013,2.379125 Z" id="Path"></path>
                            <path d="M22.0083797,6.503875 L21.093038,6.503875 L21.093038,4.141375 C21.093038,3.413375 20.817038,3.049375 20.2632911,3.049375 C19.9916582,3.049375 19.7724304,3.149125 19.6021139,3.3495 C19.4335443,3.549875 19.3479494,3.786125 19.3479494,4.0565 L19.3479494,6.503 L18.4326076,6.503 L18.4326076,3.55775 C18.4326076,3.1955 18.4212532,2.802625 18.3994177,2.377375 L19.2038354,2.377375 L19.2466329,3.02225 L19.271962,3.02225 C19.378519,2.821875 19.537481,2.6565 19.7462278,2.524375 C19.9942785,2.370375 20.2720253,2.2925 20.5759747,2.2925 C20.9602785,2.2925 21.2799494,2.41675 21.5341139,2.666125 C21.8502911,2.9715 22.0083797,3.427375 22.0083797,4.032875 L22.0083797,6.503875 Z" id="Path"></path>
                            <polygon id="Path" points="24.532557 6.503875 23.6180886 6.503875 23.6180886 0.4865 24.532557 0.4865"></polygon>
                            <path d="M29.9215443,4.407375 C29.9215443,5.04175 29.7407468,5.5615 29.3791519,5.96925 C29.0000886,6.388375 28.497,6.5975 27.8707595,6.5975 C27.265481,6.5975 26.7842278,6.397125 26.4261266,5.994625 C26.0680253,5.593 25.8889747,5.086375 25.8889747,4.475625 C25.8889747,3.836875 26.0732658,3.31275 26.4435949,2.905875 C26.8139241,2.499 27.3117722,2.295125 27.9380127,2.295125 C28.5432911,2.295125 29.028038,2.4955 29.3966203,2.897125 C29.7459873,3.287375 29.9215443,3.791375 29.9215443,4.407375 Z M28.9712658,4.437125 C28.9712658,4.0565 28.8891646,3.730125 28.7258354,3.458 C28.534557,3.129 28.2603038,2.9645 27.9056962,2.9645 C27.5371139,2.9645 27.2576203,3.129 27.0663418,3.458 C26.9021392,3.730125 26.8209114,4.06175 26.8209114,4.45375 C26.8209114,4.834375 26.9030127,5.16075 27.0663418,5.432875 C27.2646076,5.761875 27.5406076,5.926375 27.896962,5.926375 C28.2463291,5.926375 28.5197089,5.75925 28.7171013,5.424125 C28.8874177,5.14675 28.9712658,4.81775 28.9712658,4.437125 Z" id="Shape" fill-rule="nonzero"></path>
                            <path d="M34.351519,6.503875 L33.5296329,6.503875 L33.4615063,6.02875 L33.4361772,6.02875 C33.1549367,6.407625 32.754038,6.5975 32.233481,6.5975 C31.8448101,6.5975 31.5303797,6.472375 31.2936835,6.223875 C31.0788228,5.998125 30.9713924,5.71725 30.9713924,5.383875 C30.9713924,4.879875 31.1810127,4.49575 31.6028734,4.22975 C32.0238608,3.96375 32.616038,3.833375 33.3785316,3.8395 L33.3785316,3.7625 C33.3785316,3.219125 33.0937975,2.947875 32.5234557,2.947875 C32.1173165,2.947875 31.7592152,3.05025 31.4500253,3.25325 L31.2639873,2.65125 C31.6465443,2.414125 32.1190633,2.295125 32.6763038,2.295125 C33.7523544,2.295125 34.2921266,2.863875 34.2921266,4.001375 L34.2921266,5.520375 C34.2921266,5.9325 34.3122152,6.260625 34.351519,6.503875 Z M33.4012405,5.086375 L33.4012405,4.45025 C32.3915696,4.43275 31.8867342,4.710125 31.8867342,5.2815 C31.8867342,5.49675 31.9443797,5.65775 32.0622911,5.765375 C32.1802025,5.873 32.3304304,5.926375 32.509481,5.926375 C32.7103671,5.926375 32.8981519,5.8625 33.0693418,5.735625 C33.2414051,5.607875 33.3470886,5.446 33.3863924,5.247375 C33.396,5.20275 33.4012405,5.1485 33.4012405,5.086375 Z" id="Shape" fill-rule="nonzero"></path>
                            <path d="M39.5527215,6.503875 L38.740443,6.503875 L38.6976456,5.8415 L38.6723165,5.8415 C38.4129114,6.3455 37.970962,6.5975 37.349962,6.5975 C36.8538608,6.5975 36.4407342,6.402375 36.1132025,6.012125 C35.7856709,5.621875 35.6223418,5.11525 35.6223418,4.493125 C35.6223418,3.8255 35.7996456,3.28475 36.156,2.87175 C36.501,2.48675 36.9237342,2.29425 37.4268228,2.29425 C37.9796962,2.29425 38.3666203,2.480625 38.5867215,2.85425 L38.6041899,2.85425 L38.6041899,0.4865 L39.5204051,0.4865 L39.5204051,5.392625 C39.5204051,5.79425 39.5308861,6.164375 39.5527215,6.503875 Z M38.6041899,4.764375 L38.6041899,4.076625 C38.6041899,3.957625 38.5954557,3.861375 38.5788608,3.787875 C38.5273291,3.567375 38.4164051,3.381875 38.2478354,3.23225 C38.077519,3.082625 37.8722658,3.007375 37.6355696,3.007375 C37.2940633,3.007375 37.0267975,3.143 36.8302785,3.415125 C36.6355063,3.68725 36.5368101,4.034625 36.5368101,4.459 C36.5368101,4.86675 36.6302658,5.1975 36.8180506,5.452125 C37.0163165,5.723375 37.2835823,5.859 37.6181013,5.859 C37.918557,5.859 38.1587468,5.746125 38.3412911,5.5195 C38.5177215,5.310375 38.6041899,5.058375 38.6041899,4.764375 Z" id="Shape" fill-rule="nonzero"></path>
                            <path d="M47.3811646,4.407375 C47.3811646,5.04175 47.2003671,5.5615 46.8387722,5.96925 C46.4597089,6.388375 45.9583671,6.5975 45.3303797,6.5975 C44.7268481,6.5975 44.2455949,6.397125 43.8857468,5.994625 C43.5276456,5.593 43.3485949,5.086375 43.3485949,4.475625 C43.3485949,3.836875 43.5328861,3.31275 43.9032152,2.905875 C44.2735443,2.499 44.7713924,2.295125 45.3993797,2.295125 C46.0029114,2.295125 46.4894051,2.4955 46.8562405,2.897125 C47.2056076,3.287375 47.3811646,3.791375 47.3811646,4.407375 Z M46.4326329,4.437125 C46.4326329,4.0565 46.3505316,3.730125 46.1872025,3.458 C45.9941772,3.129 45.7216709,2.9645 45.3653165,2.9645 C44.998481,2.9645 44.7189873,3.129 44.525962,3.458 C44.3617595,3.730125 44.2805316,4.06175 44.2805316,4.45375 C44.2805316,4.834375 44.3626329,5.16075 44.525962,5.432875 C44.7242278,5.761875 45.0002278,5.926375 45.3565823,5.926375 C45.7059494,5.926375 45.9810759,5.75925 46.1784684,5.424125 C46.347038,5.14675 46.4326329,4.81775 46.4326329,4.437125 Z" id="Shape" fill-rule="nonzero"></path>
                            <path d="M52.3028734,6.503875 L51.3884051,6.503875 L51.3884051,4.141375 C51.3884051,3.413375 51.1124051,3.049375 50.5577848,3.049375 C50.2861519,3.049375 50.0669241,3.149125 49.897481,3.3495 C49.728038,3.549875 49.6433165,3.786125 49.6433165,4.0565 L49.6433165,6.503 L48.7271013,6.503 L48.7271013,3.55775 C48.7271013,3.1955 48.7166203,2.802625 48.6947848,2.377375 L49.4983291,2.377375 L49.5411266,3.02225 L49.5664557,3.02225 C49.6738861,2.821875 49.8328481,2.6565 50.0407215,2.524375 C50.2896456,2.370375 50.566519,2.2925 50.8713418,2.2925 C51.2547722,2.2925 51.574443,2.41675 51.8286076,2.666125 C52.1456582,2.9715 52.3028734,3.427375 52.3028734,4.032875 L52.3028734,6.503875 Z" id="Path"></path>
                            <path d="M58.4630886,3.066 L57.4551646,3.066 L57.4551646,5.06975 C57.4551646,5.579 57.6342152,5.833625 57.9888228,5.833625 C58.1530253,5.833625 58.2892785,5.819625 58.3967089,5.79075 L58.4202911,6.486375 C58.2394937,6.554625 58.0019241,6.58875 57.7093291,6.58875 C57.3477342,6.58875 57.0664937,6.4785 56.8629873,6.258 C56.6586076,6.0375 56.5572911,5.6665 56.5572911,5.145875 L56.5572911,3.066 L55.9555063,3.066 L55.9555063,2.379125 L56.5572911,2.379125 L56.5572911,1.623125 L57.4542911,1.351875 L57.4542911,2.37825 L58.4622152,2.37825 L58.4622152,3.066 L58.4630886,3.066 Z" id="Path"></path>
                            <path d="M63.3088101,6.503875 L62.3925949,6.503875 L62.3925949,4.158875 C62.3925949,3.4195 62.1165949,3.049375 61.5637215,3.049375 C61.1392405,3.049375 60.8492658,3.26375 60.6903038,3.6925 C60.6632278,3.782625 60.6475063,3.892875 60.6475063,4.022375 L60.6475063,6.503 L59.733038,6.503 L59.733038,0.4865 L60.6475063,0.4865 L60.6475063,2.972375 L60.6649747,2.972375 C60.9532025,2.52 61.3663291,2.29425 61.9017342,2.29425 C62.2807975,2.29425 62.5943544,2.4185 62.8432785,2.667875 C63.1533418,2.9785 63.3088101,3.4405 63.3088101,4.05125 L63.3088101,6.503875 Z" id="Path"></path>
                            <path d="M68.3073797,4.246375 C68.3073797,4.410875 68.2951519,4.549125 68.2733165,4.662 L65.5281646,4.662 C65.5403924,5.06975 65.6714051,5.380375 65.9255696,5.595625 C66.1578987,5.788125 66.457481,5.884375 66.8243165,5.884375 C67.2304557,5.884375 67.6007848,5.819625 67.9344304,5.68925 L68.0776709,6.32625 C67.6872532,6.496 67.2278354,6.580875 66.6959241,6.580875 C66.0583291,6.580875 65.5561139,6.39275 65.1927722,6.0165 C64.8276835,5.64025 64.6468861,5.135375 64.6468861,4.501875 C64.6468861,3.87975 64.8154557,3.36175 65.1552152,2.94875 C65.5098228,2.50775 65.9893291,2.28725 66.5946076,2.28725 C67.1867848,2.28725 67.6365949,2.50775 67.9405443,2.94875 C68.1859747,3.29875 68.3073797,3.731875 68.3073797,4.246375 Z M67.433962,4.00925 C67.4409494,3.737125 67.3806835,3.502625 67.2566582,3.304875 C67.0976962,3.05025 66.8557595,2.9225 66.5282278,2.9225 C66.229519,2.9225 65.9858354,3.04675 65.7997975,3.296125 C65.6478228,3.49475 65.5578608,3.731875 65.5281646,4.00925 L67.433962,4.00925 Z" id="Shape" fill-rule="nonzero"></path>
                        </g>
                    </g>
                </g>
            </g>
        </g>
    </g>
</svg>