<?xml version="1.0" standalone="no"?>
<!DOCTYPE svg PUBLIC "-//W3C//DTD SVG 20010904//EN"
 "http://www.w3.org/TR/2001/REC-SVG-20010904/DTD/svg10.dtd">
<svg version="1.0" xmlns="http://www.w3.org/2000/svg"
 width="297.000000pt" height="297.000000pt" viewBox="0 0 297.000000 297.000000"
 preserveAspectRatio="xMidYMid meet">
<metadata>
Created by potrace 1.11, written by Peter Selinger 2001-2013
</metadata>
<g transform="translate(0.000000,297.000000) scale(0.100000,-0.100000)"
fill="#000000" stroke="none">
<path d="M1247 2963 c-3 -5 -5 -237 -5 -518 0 -280 -1 -517 -1 -526 -1 -12
-126 55 -458 247 -252 145 -461 264 -464 264 -4 0 -47 -69 -96 -152 -48 -84
-92 -160 -98 -170 -25 -41 -45 -81 -42 -84 3 -4 462 -269 479 -278 7 -3 34
-19 59 -34 25 -15 121 -70 212 -122 92 -52 166 -97 167 -100 0 -3 -33 -23 -73
-46 -39 -23 -128 -74 -197 -114 -69 -40 -145 -84 -170 -98 -79 -45 -475 -274
-478 -277 -2 -2 18 -41 45 -87 27 -46 53 -90 57 -98 4 -8 12 -24 19 -35 7 -11
33 -57 60 -103 45 -78 61 -93 82 -73 6 5 30 20 55 34 64 35 292 165 310 176 8
6 89 53 180 105 91 52 203 117 250 145 47 28 90 51 95 51 7 0 10 -181 9 -525
-1 -358 2 -527 9 -532 6 -3 111 -7 234 -7 216 -1 224 0 228 19 2 11 4 247 4
525 0 278 0 510 0 517 1 7 47 -16 104 -49 56 -34 122 -72 147 -86 25 -14 97
-55 160 -92 108 -64 134 -78 237 -136 23 -13 92 -53 153 -89 61 -36 115 -65
119 -65 9 0 36 44 166 268 42 74 75 135 73 137 -2 3 -262 153 -543 315 -227
131 -352 204 -363 213 -10 8 -2 16 35 37 53 29 320 183 508 293 66 38 134 77
150 87 17 9 71 41 122 69 l92 53 -29 56 c-17 32 -38 71 -48 87 -9 17 -48 83
-86 148 -37 64 -70 117 -73 117 -8 0 -442 -248 -593 -339 -19 -11 -42 -24 -50
-28 -8 -4 -59 -33 -113 -65 -54 -32 -101 -58 -104 -58 -3 0 -18 -9 -34 -21
l-29 -20 -1 33 c0 18 -1 259 -1 536 l-1 502 -233 0 c-128 0 -235 -3 -237 -7z"/>
</g>
</svg>
