<?xml version="1.0" encoding="UTF-8"?>
<svg width="118px" height="34px" viewBox="0 0 118 34" version="1.1" xmlns="http://www.w3.org/2000/svg" xmlns:xlink="http://www.w3.org/1999/xlink">
    <!-- Generator: Sketch 52.6 (67491) - http://www.bohemiancoding.com/sketch -->
    <title>Get_it_on_Google_play</title>
    <desc>Created with Sketch.</desc>
    <defs>
        <linearGradient x1="91.4895098%" y1="4.9604069%" x2="-38.3173161%" y2="71.909245%" id="linearGradient-1">
            <stop stop-color="#00A0FF" offset="0%"></stop>
            <stop stop-color="#00A1FF" offset="0.66%"></stop>
            <stop stop-color="#00BEFF" offset="26.01%"></stop>
            <stop stop-color="#00D2FF" offset="51.22%"></stop>
            <stop stop-color="#00DFFF" offset="76.04%"></stop>
            <stop stop-color="#00E3FF" offset="100%"></stop>
        </linearGradient>
        <linearGradient x1="107.585647%" y1="50.0163647%" x2="-130.492257%" y2="50.0163647%" id="linearGradient-2">
            <stop stop-color="#FFE000" offset="0%"></stop>
            <stop stop-color="#FFBD00" offset="40.87%"></stop>
            <stop stop-color="#FFA500" offset="77.54%"></stop>
            <stop stop-color="#FF9C00" offset="100%"></stop>
        </linearGradient>
        <linearGradient x1="86.237735%" y1="117.851014%" x2="-50.1313759%" y2="294.785269%" id="linearGradient-3">
            <stop stop-color="#FF3A44" offset="0%"></stop>
            <stop stop-color="#C31162" offset="100%"></stop>
        </linearGradient>
        <linearGradient x1="-18.8012883%" y1="-154.171052%" x2="42.0936259%" y2="-75.1365546%" id="linearGradient-4">
            <stop stop-color="#32A071" offset="0%"></stop>
            <stop stop-color="#2DA771" offset="6.85%"></stop>
            <stop stop-color="#15CF74" offset="47.62%"></stop>
            <stop stop-color="#06E775" offset="80.09%"></stop>
            <stop stop-color="#00F076" offset="100%"></stop>
        </linearGradient>
    </defs>
    <g id="Page-1" stroke="none" stroke-width="1" fill="none" fill-rule="evenodd">
        <g id="ColdCrypto-Ready" transform="translate(-717.000000, -3468.000000)">
            <g id="Footer" transform="translate(0.000000, 3440.000000)">
                <g id="Group-2" transform="translate(595.000000, 28.000000)">
                    <g id="Get_it_on_Google_play" transform="translate(122.000000, 0.000000)">
                        <g id="g10" transform="translate(59.000000, 17.000000) scale(-1, 1) rotate(-180.000000) translate(-59.000000, -17.000000) ">
                            <g id="g12" transform="translate(0.757258, 0.000000)">
                                <path d="M112.259276,0.00355441548 L4.33747716,0.00355441548 C1.96427681,0.00355441548 0.0206052117,1.91691687 0.0206052117,4.25311011 L0.0206052117,29.7504443 C0.0206052117,32.0866375 1.96427681,34 4.33747716,34 L112.259276,34 C114.632476,34 116.576148,32.0866375 116.576148,29.7504443 L116.576148,4.25311011 C116.576148,1.91691687 114.632476,0.00355441548 112.259276,0.00355441548 Z" id="path14" fill="#000000"></path>
                                <g id="g18" transform="translate(38.634799, 25.290425) scale(-1, 1) rotate(-180.000000) translate(-38.634799, -25.290425) translate(35.634799, 22.290425)" fill="#FFFFFF" stroke="#FFFFFF" stroke-width="0.625">
                                    <path d="M5.32486155,3.39433261 C5.32486155,4.10400842 5.10901795,4.67238649 4.68380606,5.09627967 C4.19492032,5.59878963 3.5581817,5.8516382 2.7779071,5.8516382 C2.03216747,5.8516382 1.39542886,5.59454008 0.873087352,5.08778056 C0.349666628,4.57358432 0.088495875,3.9425253 0.088495875,3.18716677 C0.088495875,2.43180825 0.349666628,1.80074923 0.873087352,1.29080254 C1.39542886,0.779793471 2.03216747,0.522695351 2.7779071,0.522695351 C3.14915809,0.522695351 3.50314159,0.598124965 3.84093682,0.738360303 C4.17765283,0.879658029 4.4517742,1.07088804 4.65035031,1.30673838 L4.19923719,1.7550665 C3.85280821,1.3524211 3.38118995,1.15375437 2.7779071,1.15375437 C2.23398123,1.15375437 1.76236297,1.34073482 1.3619731,1.71788289 C0.965900099,2.09609335 0.767323989,2.58585464 0.767323989,3.18716677 C0.767323989,3.7884789 0.965900099,4.28248975 1.3619731,4.66070021 C1.76236297,5.03359872 2.23398123,5.22482873 2.7779071,5.22482873 C3.35528872,5.22482873 3.84093682,5.03359872 4.2240592,4.65645066 C4.47659621,4.40678926 4.6201322,4.06257525 4.65790483,3.62274623 L2.7779071,3.62274623 L2.7779071,3.00868543 L5.2860097,3.00868543 C5.31622781,3.14148405 5.32486155,3.27003311 5.32486155,3.39433261 Z" id="path20"></path>
                                </g>
                                <g id="g22" transform="translate(43.030889, 25.290425) scale(-1, 1) rotate(-180.000000) translate(-43.030889, -25.290425) translate(41.030889, 22.290425)" fill="#FFFFFF" stroke="#FFFFFF" stroke-width="0.625">
                                    <polygon id="path24" points="3.90784833 1.26530521 1.55191547 1.26530521 1.55191547 2.88013637 3.67581646 2.88013637 3.67581646 3.49419717 1.55191547 3.49419717 1.55191547 5.10902834 3.90784833 5.10902834 3.90784833 5.73477541 0.88495875 5.73477541 0.88495875 0.639558133 3.90784833 0.639558133"></polygon>
                                </g>
                                <g id="g26" transform="translate(47.347761, 25.290425) scale(-1, 1) rotate(-180.000000) translate(-47.347761, -25.290425) translate(45.347761, 22.290425)" fill="#FFFFFF" stroke="#FFFFFF" stroke-width="0.625">
                                    <polygon id="path28" points="2.39910159 5.73477541 1.73214487 5.73477541 1.73214487 1.26530521 0.287071985 1.26530521 0.287071985 0.639558133 3.84525369 0.639558133 3.84525369 1.26530521 2.39910159 1.26530521 2.39910159 5.73477541"></polygon>
                                </g>
                                <g id="g30" transform="translate(51.743851, 25.290425) scale(-1, 1) rotate(-180.000000) translate(-51.743851, -25.290425) translate(50.743851, 22.290425)" fill="#FFFFFF" stroke="#FFFFFF" stroke-width="0.625">
                                    <polygon id="path32" points="1.02417787 5.73477541 1.02417787 0.639558133 1.69005537 0.639558133 1.69005537 5.73477541"></polygon>
                                </g>
                                <g id="g34" transform="translate(54.902287, 25.290425) scale(-1, 1) rotate(-180.000000) translate(-54.902287, -25.290425) translate(52.902287, 22.290425)" fill="#FFFFFF" stroke="#FFFFFF" stroke-width="0.625">
                                    <polygon id="path36" points="2.48328059 5.73477541 1.82171996 5.73477541 1.82171996 1.26530521 0.371250988 1.26530521 0.371250988 0.639558133 3.93374956 0.639558133 3.93374956 1.26530521 2.48328059 1.26530521"></polygon>
                                </g>
                                <g id="g38" transform="translate(61.798377, 25.290425) scale(-1, 1) rotate(-180.000000) translate(-61.798377, -25.290425) translate(58.298377, 22.290425)" fill="#FFFFFF" fill-rule="nonzero" stroke="#FFFFFF" stroke-width="0.625">
                                    <path d="M5.2741383,5.07928145 C4.7636682,5.59454008 4.13124646,5.8516382 3.37687308,5.8516382 C2.61818284,5.8516382 1.9857611,5.59454008 1.47529099,5.07928145 C0.965900099,4.56508521 0.712283872,3.93402619 0.712283872,3.18716677 C0.712283872,2.44030736 0.965900099,1.80924834 1.47529099,1.2950521 C1.9857611,0.779793471 2.61818284,0.522695351 3.37687308,0.522695351 C4.12692958,0.522695351 4.75935132,0.779793471 5.26982143,1.29930165 C5.78352919,1.81774745 6.03714542,2.44455692 6.03714542,3.18716677 C6.03714542,3.93402619 5.78352919,4.56508521 5.2741383,5.07928145 Z M1.96849361,4.6522011 C2.35269521,5.03359872 2.8199966,5.22482873 3.37687308,5.22482873 C3.92943269,5.22482873 4.40105095,5.03359872 4.78093568,4.6522011 C5.16405807,4.27080348 5.35831731,3.78104218 5.35831731,3.18716677 C5.35831731,2.59329136 5.16405807,2.10353007 4.78093568,1.72213245 C4.40105095,1.34073482 3.92943269,1.14950482 3.37687308,1.14950482 C2.8199966,1.14950482 2.35269521,1.34073482 1.96849361,1.72213245 C1.58537122,2.10353007 1.39111199,2.59329136 1.39111199,3.18716677 C1.39111199,3.78104218 1.58537122,4.27080348 1.96849361,4.6522011 Z" id="path40"></path>
                                </g>
                                <g id="g42" transform="translate(67.273684, 25.290425) scale(-1, 1) rotate(-180.000000) translate(-67.273684, -25.290425) translate(64.773684, 22.290425)" fill="#FFFFFF" stroke="#FFFFFF" stroke-width="0.625">
                                    <polygon id="path44" points="0.497519492 5.73477541 0.497519492 0.639558133 1.30693298 0.639558133 3.82366933 4.60226882 3.85280821 4.60226882 3.82366933 3.62274623 3.82366933 0.639558133 4.48954683 0.639558133 4.48954683 5.73477541 3.79453044 5.73477541 1.15908012 1.57658516 1.12994123 1.57658516 1.15908012 2.56035731 1.15908012 5.73477541 0.497519492 5.73477541"></polygon>
                                </g>
                                <path d="M58.8466193,15.1146774 C56.8187687,15.1146774 55.1621691,13.5954612 55.1621691,11.4993679 C55.1621691,9.42027273 56.8187687,7.88512073 58.8466193,7.88512073 C60.8787867,7.88512073 62.5353863,9.42027273 62.5353863,11.4993679 C62.5353863,13.5954612 60.8787867,15.1146774 58.8466193,15.1146774 Z M58.8466193,9.30872189 C57.7339455,9.30872189 56.7766792,10.2128149 56.7766792,11.4993679 C56.7766792,12.8029191 57.7339455,13.6910762 58.8466193,13.6910762 C59.959293,13.6910762 60.9208762,12.8029191 60.9208762,11.4993679 C60.9208762,10.2128149 59.959293,9.30872189 58.8466193,9.30872189 Z M50.8075245,15.1146774 C48.775357,15.1146774 47.1230743,13.5954612 47.1230743,11.4993679 C47.1230743,9.42027273 48.775357,7.88512073 50.8075245,7.88512073 C52.8386127,7.88512073 54.4919747,9.42027273 54.4919747,11.4993679 C54.4919747,13.5954612 52.8386127,15.1146774 50.8075245,15.1146774 Z M50.8075245,9.30872189 C49.6937715,9.30872189 48.7332675,10.2128149 48.7332675,11.4993679 C48.7332675,12.8029191 49.6937715,13.6910762 50.8075245,13.6910762 C51.9201982,13.6910762 52.8774646,12.8029191 52.8774646,11.4993679 C52.8774646,10.2128149 51.9201982,9.30872189 50.8075245,9.30872189 Z M41.2413362,14.0066057 L41.2413362,12.4703913 L44.9678759,12.4703913 C44.8588749,11.6119811 44.5674861,10.9809221 44.1206898,10.541093 C43.576764,10.0098986 42.7295778,9.42027273 41.2413362,9.42027273 C38.947998,9.42027273 37.1521793,11.2422697 37.1521793,13.4998462 C37.1521793,15.7574227 38.947998,17.5794197 41.2413362,17.5794197 C42.4813577,17.5794197 43.3835839,17.102407 44.0494614,16.4840967 L45.1491846,17.566671 C44.2178194,18.4420795 42.9788772,19.1145717 41.2413362,19.1145717 C38.096495,19.1145717 35.4534902,16.5956475 35.4534902,13.4998462 C35.4534902,10.4040449 38.096495,7.88512073 41.2413362,7.88512073 C42.9411046,7.88512073 44.2178194,8.43331342 45.2214922,9.4617059 C46.2499869,10.4741625 46.5705147,11.8977637 46.5705147,13.0472685 C46.5705147,13.4042312 46.5402966,13.7325094 46.4863357,14.0066057 L41.2413362,14.0066057 Z M80.3586714,12.8156677 C80.0554111,13.6241457 79.1197291,15.1146774 77.2138302,15.1146774 C75.3251987,15.1146774 73.7527781,13.649643 73.7527781,11.4993679 C73.7527781,9.47445456 75.3090104,7.88512073 77.3951388,7.88512073 C79.0819565,7.88512073 80.0554111,8.89757738 80.455801,9.48720323 L79.2039082,10.3084299 C78.7862508,9.70711774 78.2175029,9.30872189 77.3951388,9.30872189 C76.5781708,9.30872189 75.9921554,9.67737085 75.6165876,10.4040449 L80.5281086,12.4045232 L80.3586714,12.8156677 Z M75.3510999,11.6119811 C75.3090104,13.0058353 76.4508231,13.7197607 77.2688703,13.7197607 C77.9099258,13.7197607 78.4538517,13.4042312 78.6351603,12.9527159 L75.3510999,11.6119811 Z M71.3590726,8.10503524 L72.9735827,8.10503524 L72.9735827,18.7289245 L71.3590726,18.7289245 L71.3590726,8.10503524 Z M68.7149885,14.3093866 L68.6610276,14.3093866 C68.2984104,14.7322174 67.6066317,15.1146774 66.7303067,15.1146774 C64.8913192,15.1146774 63.2098976,13.5253435 63.2098976,11.4876816 C63.2098976,9.4617059 64.8913192,7.88512073 66.7303067,7.88512073 C67.6066317,7.88512073 68.2984104,8.27076791 68.6610276,8.70634737 L68.7149885,8.70634737 L68.7149885,8.18790158 C68.7149885,6.80573359 67.964932,6.06312373 66.7551287,6.06312373 C65.7687234,6.06312373 65.1568068,6.76430042 64.9042698,7.35392627 L63.5002072,6.77704908 C63.904914,5.81877427 64.9765774,4.63952257 66.7551287,4.63952257 C68.648077,4.63952257 70.2453196,5.73590794 70.2453196,8.40356653 L70.2453196,14.8947629 L68.7149885,14.8947629 L68.7149885,14.3093866 Z M66.8684466,9.30872189 C65.7557728,9.30872189 64.8244077,10.2255635 64.8244077,11.4876816 C64.8244077,12.7614859 65.7557728,13.6910762 66.8684466,13.6910762 C67.964932,13.6910762 68.8293856,12.7614859 68.8293856,11.4876816 C68.8293856,10.2255635 67.964932,9.30872189 66.8684466,9.30872189 Z M87.9175142,18.7289245 L84.0560722,18.7289245 L84.0560722,8.10503524 L85.6662655,8.10503524 L85.6662655,12.1304269 L87.9175142,12.1304269 C89.7057784,12.1304269 91.4595076,13.4042312 91.4595076,15.4302069 C91.4595076,17.4551202 89.7014615,18.7289245 87.9175142,18.7289245 Z M87.9596037,13.6082099 L85.6662655,13.6082099 L85.6662655,17.2511415 L87.9596037,17.2511415 C89.1618525,17.2511415 89.8482352,16.2684317 89.8482352,15.4302069 C89.8482352,14.6079178 89.1618525,13.6082099 87.9596037,13.6082099 Z M97.9132312,15.1348628 C96.7498342,15.1348628 95.5400308,14.6291656 95.0425113,13.5083453 L96.4713959,12.9187195 C96.7789731,13.5083453 97.3444833,13.6995753 97.9423701,13.6995753 C98.7776848,13.6995753 99.6248709,13.2055645 99.6378215,12.3333432 L99.6378215,12.2217923 C99.3464327,12.387525 98.7226447,12.6329368 97.9553207,12.6329368 C96.4163558,12.6329368 94.8482521,11.7989615 94.8482521,10.2425618 C94.8482521,8.8189606 96.1087787,7.90211896 97.5257919,7.90211896 C98.6093268,7.90211896 99.2072135,8.38338114 99.5827814,8.9432601 L99.6378215,8.9432601 L99.6378215,8.12203346 L101.192975,8.12203346 L101.192975,12.1973574 C101.192975,14.0809729 99.76409,15.1348628 97.9132312,15.1348628 Z M97.7189719,9.31297145 C97.1923136,9.31297145 96.4584453,9.57006957 96.4584453,10.2128149 C96.4584453,11.0351039 97.3736222,11.3506334 98.1657682,11.3506334 C98.8748144,11.3506334 99.2072135,11.196587 99.6378215,10.9936707 C99.511553,10.0098986 98.6514163,9.31297145 97.7189719,9.31297145 Z M106.858869,14.9021996 L105.00801,10.2967436 L104.95297,10.2967436 L103.039517,14.9021996 L101.303055,14.9021996 L104.178092,8.46624747 L102.53768,4.88493441 L104.220181,4.88493441 L108.650371,14.9021996 L106.858869,14.9021996 Z M92.3444664,8.10503524 L93.9589765,8.10503524 L93.9589765,18.7289245 L92.3444664,18.7289245 L92.3444664,8.10503524 Z" id="path46" fill="#FFFFFF" fill-rule="nonzero"></path>
                                <g id="g48" transform="translate(8.575131, 5.917868)" fill="url(#linearGradient-1)">
                                    <path d="M0.454785847,21.2772334 C0.20116962,21.0158857 0.0543959735,20.6089907 0.0543959735,20.0820458 L0.0543959735,1.28626097 C0.0543959735,0.759316059 0.20116962,0.352421101 0.454785847,0.0910734255 L0.51738049,0.0337044236 L11.2167476,10.5619787 L11.2167476,10.8105777 L0.51738049,21.3388519 L0.454785847,21.2772334 Z" id="path64"></path>
                                </g>
                                <g id="g66" transform="translate(19.446529, 12.354591)" fill="url(#linearGradient-2)">
                                    <path d="M3.90784833,0.614060798 L0.345349756,4.12525619 L0.345349756,4.3738552 L3.9121652,7.8850506 L3.99202733,7.83936787 L8.21608654,5.47342774 C9.42157303,4.80199794 9.42157303,3.69711346 8.21608654,3.0214341 L3.99202733,0.659743522 L3.90784833,0.614060798 Z" id="path78"></path>
                                </g>
                                <g id="g80" transform="translate(8.654349, 4.917868)" fill="url(#linearGradient-3)">
                                    <path d="M14.7842072,8.09646599 L11.1375296,11.6862782 L0.37556786,1.09107343 C0.775957733,0.676741745 1.42888462,0.626809465 2.17138659,1.04114115 L14.7842072,8.09646599" id="path88"></path>
                                </g>
                                <g id="g90" transform="translate(8.654349, 16.604147)" fill="url(#linearGradient-4)">
                                    <path d="M14.7842072,3.58981218 L2.17138659,10.645137 C1.42888462,11.0552191 0.775957733,11.0052869 0.37556786,10.5909552 L11.1375296,0 L14.7842072,3.58981218 Z" id="path104"></path>
                                </g>
                            </g>
                        </g>
                    </g>
                </g>
            </g>
        </g>
    </g>
</svg>