<?xml version="1.0" encoding="UTF-8"?>
<svg width="54px" height="64px" viewBox="0 0 54 64" version="1.1" xmlns="http://www.w3.org/2000/svg" xmlns:xlink="http://www.w3.org/1999/xlink">
    <!-- Generator: Sketch 52.6 (67491) - http://www.bohemiancoding.com/sketch -->
    <title>shield</title>
    <desc>Created with Sketch.</desc>
    <g id="Page-1" stroke="none" stroke-width="1" fill="none" fill-rule="evenodd">
        <g id="ColdCrypto-Ready" transform="translate(-806.000000, -1247.000000)">
            <g id="Group-10" transform="translate(806.000000, 1247.000000)">
                <g id="shield">
                    <path d="M51.147572,42.7387581 C49.4431684,47.40087 46.865518,51.4545832 43.4852546,54.7861278 C39.6376469,58.5781221 34.599424,61.5913073 28.5104023,63.7407225 C28.3105957,63.811035 28.1020808,63.8686523 27.8925983,63.9111327 C27.6158685,63.9663086 27.3343009,63.9960937 27.0551522,64 L27.0004835,64 C26.7029507,64 26.4039664,63.9697265 26.1074012,63.9111327 C25.8979187,63.8686523 25.6923065,63.811035 25.4934676,63.7421874 C19.3971889,61.5961901 14.3526767,58.5844697 10.5011986,54.7924756 C7.11948386,51.4609308 4.5423172,47.4096591 2.84033263,42.7475473 C-0.254492862,34.2709803 -0.0783919964,24.9330846 0.0633593938,17.4291744 L0.065778329,17.31394 C0.0943221615,16.6943107 0.112706243,16.0434314 0.122865994,15.324681 C0.174631778,11.7958706 2.95450783,8.87643545 6.45136542,8.67965797 C13.7421296,8.26901325 19.3821913,5.86910959 24.2012558,1.12838443 L24.2433458,1.08932191 C25.0435398,0.348598768 26.0517649,-0.014682676 27.0551522,0.000454113293 C28.0227387,0.0131494638 28.9864548,0.375942533 29.7581051,1.08932191 L29.7992275,1.12838443 C34.6192596,5.86910959 40.2593212,8.26901325 47.5500855,8.67965797 C51.046943,8.87643545 53.826819,11.7958706 53.8785849,15.324681 C53.8887446,16.0483143 53.9071286,16.698217 53.9356725,17.31394 L53.9371239,17.3627681 C54.0783915,24.8808385 54.2535247,34.2372889 51.147572,42.7387581 Z" id="Path" fill="#00DD80"></path>
                    <path d="M51.1417335,42.7386073 C49.4338413,47.4007522 46.8509148,51.4544942 43.4637324,54.7860625 C39.6082493,58.5780836 34.5597138,61.5912902 28.4582288,63.7407206 C28.2580132,63.8110337 28.0490715,63.8686514 27.8391603,63.9111321 C27.561864,63.9663084 27.27972,63.9960937 27,64 L27,0 C27.969567,0.0126954406 28.9352557,0.375491084 29.7084854,1.08887553 L29.749692,1.12793832 C34.5795901,5.86869712 40.2311961,8.2686178 47.5368835,8.67926544 C51.0408985,8.87604431 53.8264645,11.7955002 53.8783364,15.3243356 C53.8885168,16.047974 53.9069385,16.6978814 53.9355408,17.3136087 L53.9369952,17.3624372 C54.078552,24.8805609 54.2540437,34.2370777 51.1417335,42.7386073 Z" id="Path" fill="#00AA63"></path>
                    <path d="M43,31.9997551 C43,40.802902 35.8523717,47.9686529 27.0565718,48 L27.0002449,48 C18.1784856,48 11,40.8220042 11,31.9997551 C11,23.1779957 18.1784856,16 27.0002449,16 L27.0565718,16 C35.8523717,16.0313471 43,23.1970979 43,31.9997551 Z" id="Path" fill="#FFFFFF"></path>
                    <path d="M42,31.9997551 C42,40.802902 35.2753218,47.9686529 27,48 L27,16 C35.2753218,16.0313471 42,23.1970979 42,31.9997551 Z" id="Path" fill="#E1EBF0"></path>
                    <path d="M33.478794,29.3359684 L26.6718847,36.8125213 L25.2010333,38.4278511 C24.8535626,38.809453 24.3978254,39 23.9425509,39 C23.4868137,39 23.0315392,38.809453 22.6836058,38.4278511 L19.521206,34.9532916 C18.8262647,34.1900876 18.8262647,32.9538192 19.521206,32.1901071 C20.215222,31.4269033 21.3423041,31.4269033 22.0372454,32.1901071 L23.9425509,34.2825664 L30.9627544,26.572784 C31.6576959,25.809072 32.784778,25.809072 33.478794,26.572784 C34.1737353,27.335988 34.1737353,28.5737807 33.478794,29.3359684 Z" id="Path" fill="#B4D2D7"></path>
                    <path d="M33.5021309,29.3938109 L27,37 L27,31.3762586 L31.0987467,26.5827155 C31.7625722,25.8057615 32.8391894,25.8057615 33.5021309,26.5827155 C34.1659564,27.3591527 34.1659564,28.6184076 33.5021309,29.3938109 Z" id="Path" fill="#6FA5AA"></path>
                </g>
            </g>
        </g>
    </g>
</svg>