<?xml version="1.0" encoding="UTF-8"?>
<svg width="162px" height="47px" viewBox="0 0 162 47" version="1.1" xmlns="http://www.w3.org/2000/svg" xmlns:xlink="http://www.w3.org/1999/xlink">
    <!-- Generator: Sketch 52.6 (67491) - http://www.bohemiancoding.com/sketch -->
    <title>Get_it_on_Google_play</title>
    <desc>Created with Sketch.</desc>
    <defs>
        <linearGradient x1="91.4895098%" y1="4.9604069%" x2="-38.3173161%" y2="71.909245%" id="linearGradient-1">
            <stop stop-color="#00A0FF" offset="0%"></stop>
            <stop stop-color="#00A1FF" offset="0.66%"></stop>
            <stop stop-color="#00BEFF" offset="26.01%"></stop>
            <stop stop-color="#00D2FF" offset="51.22%"></stop>
            <stop stop-color="#00DFFF" offset="76.04%"></stop>
            <stop stop-color="#00E3FF" offset="100%"></stop>
        </linearGradient>
        <linearGradient x1="107.585647%" y1="50.0163647%" x2="-130.492257%" y2="50.0163647%" id="linearGradient-2">
            <stop stop-color="#FFE000" offset="0%"></stop>
            <stop stop-color="#FFBD00" offset="40.87%"></stop>
            <stop stop-color="#FFA500" offset="77.54%"></stop>
            <stop stop-color="#FF9C00" offset="100%"></stop>
        </linearGradient>
        <linearGradient x1="86.237735%" y1="117.851014%" x2="-50.1313759%" y2="294.785269%" id="linearGradient-3">
            <stop stop-color="#FF3A44" offset="0%"></stop>
            <stop stop-color="#C31162" offset="100%"></stop>
        </linearGradient>
        <linearGradient x1="-18.8012883%" y1="-154.171052%" x2="42.0936259%" y2="-75.1365546%" id="linearGradient-4">
            <stop stop-color="#32A071" offset="0%"></stop>
            <stop stop-color="#2DA771" offset="6.85%"></stop>
            <stop stop-color="#15CF74" offset="47.62%"></stop>
            <stop stop-color="#06E775" offset="80.09%"></stop>
            <stop stop-color="#00F076" offset="100%"></stop>
        </linearGradient>
    </defs>
    <g id="Page-1" stroke="none" stroke-width="1" fill="none" fill-rule="evenodd" opacity="0.301618304">
        <g id="ColdCrypto-Ready" transform="translate(-316.000000, -726.000000)">
            <g id="Block1-texts" transform="translate(146.000000, 266.000000)">
                <g id="Group-2" transform="translate(0.000000, 460.000000)">
                    <g id="Get_it_on_Google_play" transform="translate(170.000000, 0.000000)">
                        <g id="g10" transform="translate(81.500000, 23.500000) scale(-1, 1) rotate(-180.000000) translate(-81.500000, -23.500000) ">
                            <g id="g12" transform="translate(0.046043, 0.000000)">
                                <path d="M155.070017,0.00491345669 L5.99159981,0.00491345669 C2.71336542,0.00491345669 0.0284631314,2.64985567 0.0284631314,5.87929927 L0.0284631314,41.1256142 C0.0284631314,44.3550578 2.71336542,47 5.99159981,47 L155.070017,47 C158.348251,47 161.033153,44.3550578 161.033153,41.1256142 L161.033153,5.87929927 C161.033153,2.64985567 158.348251,0.00491345669 155.070017,0.00491345669 Z" id="path14" fill="#000000"></path>
                                <g id="g18" transform="translate(53.224341, 34.607352) scale(-1, 1) rotate(-180.000000) translate(-53.224341, -34.607352) translate(49.224341, 30.107352)" fill="#FFFFFF" stroke="#FFFFFF" stroke-width="0.625">
                                    <path d="M7.35552909,4.69216567 C7.35552909,5.6731881 7.05737226,6.45888721 6.47000329,7.04485719 C5.79467806,7.73950332 4.9151154,8.08902927 3.83727845,8.08902927 C2.80714659,8.08902927 1.92758393,7.73362893 1.20604439,7.03310842 C0.483014071,6.32230774 0.122244302,5.44996144 0.122244302,4.40578936 C0.122244302,3.36161728 0.483014071,2.48927099 1.20604439,1.78434469 C1.92758393,1.0779498 2.80714659,0.722549456 3.83727845,0.722549456 C4.3501082,0.722549456 4.83908541,0.826819804 5.30570086,1.02067454 C5.77082552,1.21599786 6.1494847,1.48034523 6.42378898,1.80637364 L5.8006412,2.42612134 C5.32209948,1.86952329 4.6706268,1.59489575 3.83727845,1.59489575 C3.08592323,1.59489575 2.43445055,1.85336873 1.88136962,2.37472047 C1.33425183,2.8975408 1.05994754,3.57456377 1.05994754,4.40578936 C1.05994754,5.23701496 1.33425183,5.91991231 1.88136962,6.44273265 C2.43445055,6.95821 3.08592323,7.22255736 3.83727845,7.22255736 C4.63484798,7.22255736 5.30570086,6.95821 5.83492924,6.43685826 C6.18377273,6.09173809 6.38204703,5.61591284 6.43422447,5.00791391 L3.83727845,5.00791391 L3.83727845,4.15906516 L7.30186086,4.15906516 C7.34360282,4.34263972 7.35552909,4.52033989 7.35552909,4.69216567 Z" id="path20"></path>
                                </g>
                                <g id="g22" transform="translate(60.178262, 35.107352) scale(-1, 1) rotate(-180.000000) translate(-60.178262, -35.107352) translate(57.678262, 31.107352)" fill="#FFFFFF" stroke="#FFFFFF" stroke-width="0.625">
                                    <polygon id="path24" points="4.39812948 1.74909838 1.14374763 1.74909838 1.14374763 3.98136499 4.07761088 3.98136499 4.07761088 4.83021374 1.14374763 4.83021374 1.14374763 7.06248035 4.39812948 7.06248035 4.39812948 7.92748366 0.222443018 7.92748366 0.222443018 0.884095066 4.39812948 0.884095066"></polygon>
                                </g>
                                <g id="g26" transform="translate(65.641398, 35.107352) scale(-1, 1) rotate(-180.000000) translate(-65.641398, -35.107352) translate(62.641398, 31.107352)" fill="#FFFFFF" stroke="#FFFFFF" stroke-width="0.625">
                                    <polygon id="path28" points="3.31401321 7.92748366 2.39270859 7.92748366 2.39270859 1.74909838 0.396548589 1.74909838 0.396548589 0.884095066 5.31166399 0.884095066 5.31166399 1.74909838 3.31401321 1.74909838 3.31401321 7.92748366"></polygon>
                                </g>
                                <g id="g30" transform="translate(72.095319, 35.107352) scale(-1, 1) rotate(-180.000000) translate(-72.095319, -35.107352) translate(71.095319, 31.107352)" fill="#FFFFFF" stroke="#FFFFFF" stroke-width="0.625">
                                    <polygon id="path32" points="0.414754176 7.92748366 0.414754176 0.884095066 1.33456801 0.884095066 1.33456801 7.92748366"></polygon>
                                </g>
                                <g id="g34" transform="translate(76.076887, 35.107352) scale(-1, 1) rotate(-180.000000) translate(-76.076887, -35.107352) translate(73.076887, 31.107352)" fill="#FFFFFF" stroke="#FFFFFF" stroke-width="0.625">
                                    <polygon id="path36" points="3.43029437 7.92748366 2.51644368 7.92748366 2.51644368 1.74909838 0.512829754 1.74909838 0.512829754 0.884095066 5.4339083 0.884095066 5.4339083 1.74909838 3.43029437 1.74909838"></polygon>
                                </g>
                                <g id="g38" transform="translate(85.030808, 34.607352) scale(-1, 1) rotate(-180.000000) translate(-85.030808, -34.607352) translate(80.530808, 30.107352)" fill="#FFFFFF" fill-rule="nonzero" stroke="#FFFFFF" stroke-width="0.625">
                                    <path d="M7.28546223,7.02135965 C6.58032132,7.73362893 5.7067218,8.08902927 4.66466366,8.08902927 C3.61664239,8.08902927 2.74304287,7.73362893 2.03790196,7.02135965 C1.33425183,6.31055896 0.983917551,5.43821267 0.983917551,4.40578936 C0.983917551,3.37336606 1.33425183,2.50101976 2.03790196,1.79021908 C2.74304287,1.0779498 3.61664239,0.722549456 4.66466366,0.722549456 C5.70075866,0.722549456 6.57435818,1.0779498 7.2794991,1.79609346 C7.98911236,2.51276853 8.33944664,3.37924044 8.33944664,4.40578936 C8.33944664,5.43821267 7.98911236,6.31055896 7.28546223,7.02135965 Z M2.71919032,6.43098387 C3.24990949,6.95821 3.89541903,7.22255736 4.66466366,7.22255736 C5.42794516,7.22255736 6.07941784,6.95821 6.60417387,6.43098387 C7.13340225,5.90375775 7.4017434,5.22673478 7.4017434,4.40578936 C7.4017434,3.58484395 7.13340225,2.90782098 6.60417387,2.38059485 C6.07941784,1.85336873 5.42794516,1.58902136 4.66466366,1.58902136 C3.89541903,1.58902136 3.24990949,1.85336873 2.71919032,2.38059485 C2.18996194,2.90782098 1.92162079,3.58484395 1.92162079,4.40578936 C1.92162079,5.22673478 2.18996194,5.90375775 2.71919032,6.43098387 Z" id="path40"></path>
                                </g>
                                <g id="g42" transform="translate(92.975513, 35.107352) scale(-1, 1) rotate(-180.000000) translate(-92.975513, -35.107352) translate(89.475513, 31.107352)" fill="#FFFFFF" stroke="#FFFFFF" stroke-width="0.625">
                                    <polygon id="path44" points="0.687251502 7.92748366 0.687251502 0.884095066 1.80533963 0.884095066 5.28184831 6.36195984 5.32209948 6.36195984 5.28184831 5.00791391 5.28184831 0.884095066 6.20166214 0.884095066 6.20166214 7.92748366 5.24159714 7.92748366 1.6011022 2.17939714 1.56085102 2.17939714 1.6011022 3.53931746 1.6011022 7.92748366 0.687251502 7.92748366"></polygon>
                                </g>
                                <path d="M81.2881266,20.8938187 C78.4869432,20.8938187 76.1985895,18.7937258 76.1985895,15.896185 C76.1985895,13.0221417 78.4869432,10.9000198 81.2881266,10.9000198 C84.0952732,10.9000198 86.3836269,13.0221417 86.3836269,15.896185 C86.3836269,18.7937258 84.0952732,20.8938187 81.2881266,20.8938187 Z M81.2881266,12.8679391 C79.7511281,12.8679391 78.4288026,14.1177147 78.4288026,15.896185 C78.4288026,17.6981528 79.7511281,18.9258995 81.2881266,18.9258995 C82.8251251,18.9258995 84.1534138,17.6981528 84.1534138,15.896185 C84.1534138,14.1177147 82.8251251,12.8679391 81.2881266,12.8679391 Z M70.1832753,20.8938187 C67.3761287,20.8938187 65.0937382,18.7937258 65.0937382,15.896185 C65.0937382,13.0221417 67.3761287,10.9000198 70.1832753,10.9000198 C72.9889311,10.9000198 75.2728125,13.0221417 75.2728125,15.896185 C75.2728125,18.7937258 72.9889311,20.8938187 70.1832753,20.8938187 Z M70.1832753,12.8679391 C68.6447861,12.8679391 67.3179882,14.1177147 67.3179882,15.896185 C67.3179882,17.6981528 68.6447861,18.9258995 70.1832753,18.9258995 C71.7202738,18.9258995 73.0425994,17.6981528 73.0425994,15.896185 C73.0425994,14.1177147 71.7202738,12.8679391 70.1832753,12.8679391 Z M56.9689645,19.3620726 L56.9689645,17.2384821 L62.1166422,17.2384821 C61.966073,16.0518562 61.5635613,15.1795099 60.9463766,14.571511 C60.1950214,13.8372127 59.0247558,13.0221417 56.9689645,13.0221417 C53.8010481,13.0221417 51.3203832,15.5407846 51.3203832,18.6615521 C51.3203832,21.7823196 53.8010481,24.3009625 56.9689645,24.3009625 C58.6818755,24.3009625 59.928171,23.6415627 60.8479849,22.7868395 L62.3670939,24.2833393 C61.0805472,25.4934628 59.369127,26.4230844 56.9689645,26.4230844 C52.6248194,26.4230844 48.973889,22.9410422 48.973889,18.6615521 C48.973889,14.382062 52.6248194,10.9000198 56.9689645,10.9000198 C59.3169495,10.9000198 61.0805472,11.6578156 62.4669765,13.079417 C63.8876938,14.4789894 64.3304567,16.4469086 64.3304567,18.03593 C64.3304567,18.5293784 64.2887147,18.9831747 64.2141755,19.3620726 L56.9689645,19.3620726 Z M111.003927,17.715776 C110.585017,18.8333779 109.292507,20.8938187 106.659782,20.8938187 C104.05091,20.8938187 101.878838,18.8686242 101.878838,15.896185 C101.878838,13.0970401 104.028548,10.9000198 106.910234,10.9000198 C109.24033,10.9000198 110.585017,12.2995923 111.138098,13.1146633 L109.408788,14.2498883 C108.831855,13.4186628 108.046212,12.8679391 106.910234,12.8679391 C105.78171,12.8679391 104.972215,13.3775421 104.453422,14.382062 L111.237981,17.1474292 L111.003927,17.715776 Z M104.086689,16.0518562 C104.028548,17.9786547 105.605798,18.9655516 106.735812,18.9655516 C107.621338,18.9655516 108.372693,18.5293784 108.623145,17.9052249 L104.086689,16.0518562 Z M98.5722783,11.2040193 L100.802491,11.2040193 L100.802491,25.8899838 L98.5722783,25.8899838 L98.5722783,11.2040193 Z M94.919857,19.7806226 L94.8453178,19.7806226 C94.3444144,20.365124 93.3888217,20.8938187 92.178305,20.8938187 C89.6380087,20.8938187 87.315367,18.6967984 87.315367,15.8800304 C87.315367,13.079417 89.6380087,10.9000198 92.178305,10.9000198 C93.3888217,10.9000198 94.3444144,11.4331203 94.8453178,12.0352449 L94.919857,12.0352449 L94.919857,11.3185698 C94.919857,9.40792584 93.883762,8.38137692 92.212593,8.38137692 C90.8500163,8.38137692 90.0047416,9.35065058 89.6558981,10.1657216 L87.7163879,9.36827373 C88.275432,8.04359973 89.7557807,6.41345767 92.212593,6.41345767 C94.8274284,6.41345767 97.033789,7.92904921 97.033789,11.6166949 L97.033789,20.5898192 L94.919857,20.5898192 L94.919857,19.7806226 Z M92.3691253,12.8679391 C90.8321269,12.8679391 89.5455801,14.1353378 89.5455801,15.8800304 C89.5455801,17.6408776 90.8321269,18.9258995 92.3691253,18.9258995 C93.883762,18.9258995 95.0778802,17.6408776 95.0778802,15.8800304 C95.0778802,14.1353378 93.883762,12.8679391 92.3691253,12.8679391 Z M121.44538,25.8899838 L116.111354,25.8899838 L116.111354,11.2040193 L118.335604,11.2040193 L118.335604,16.7685313 L121.44538,16.7685313 C123.915609,16.7685313 126.338133,18.5293784 126.338133,21.3299919 C126.338133,24.1291367 123.909646,25.8899838 121.44538,25.8899838 Z M121.50352,18.8113489 L118.335604,18.8113489 L118.335604,23.8471662 L121.50352,23.8471662 C123.164254,23.8471662 124.112393,22.4887145 124.112393,21.3299919 C124.112393,20.1932982 123.164254,18.8113489 121.50352,18.8113489 Z M135.253023,20.921722 C133.645957,20.921722 131.974788,20.2226701 131.287537,18.6733009 L133.261335,17.8582298 C133.686209,18.6733009 134.467379,18.9376482 135.293274,18.9376482 C136.447141,18.9376482 137.617406,18.2547509 137.635296,17.0490332 L137.635296,16.8948306 C137.232784,17.1239316 136.371111,17.4631774 135.311163,17.4631774 C133.185305,17.4631774 131.019196,16.3103292 131.019196,14.1588354 C131.019196,12.1909161 132.760432,10.9235174 134.717831,10.9235174 C136.214579,10.9235174 137.040473,11.5887916 137.559266,12.3627419 L137.635296,12.3627419 L137.635296,11.2275168 L139.783516,11.2275168 L139.783516,16.8610528 C139.783516,19.4648744 137.809718,20.921722 135.253023,20.921722 Z M134.984682,12.8738135 C134.257179,12.8738135 133.243446,13.2292138 133.243446,14.1177147 C133.243446,15.2544083 134.507631,15.6905815 135.601866,15.6905815 C136.581311,15.6905815 137.040473,15.477635 137.635296,15.1971331 C137.460874,13.8372127 136.272719,12.8738135 134.984682,12.8738135 Z M147.610133,20.6000994 L145.053438,14.2337338 L144.977408,14.2337338 L142.334248,20.6000994 L139.935576,20.6000994 L143.907025,11.7033421 L141.641033,6.75270345 L143.965165,6.75270345 L150.084834,20.6000994 L147.610133,20.6000994 Z M127.560576,11.2040193 L129.79079,11.2040193 L129.79079,25.8899838 L127.560576,25.8899838 L127.560576,11.2040193 Z" id="path46" fill="#FFFFFF" fill-rule="nonzero"></path>
                                <g id="g48" transform="translate(11.845308, 8.180583)" fill="url(#linearGradient-1)">
                                    <path d="M0.628221127,29.4126461 C0.277886848,29.0513714 0.0751402007,28.4888989 0.0751402007,27.7604751 L0.0751402007,1.77806663 C0.0751402007,1.04964279 0.277886848,0.487170345 0.628221127,0.125895618 L0.714686609,0.046591409 L15.4943209,14.6003823 L15.4943209,14.9440338 L0.714686609,29.4978247 L0.628221127,29.4126461 Z" id="path64"></path>
                                </g>
                                <g id="g66" transform="translate(26.862578, 17.078405)" fill="url(#linearGradient-2)">
                                    <path d="M5.39812948,0.848848751 L0.477050934,5.70256003 L0.477050934,6.0462116 L5.40409261,10.8999229 L5.51441064,10.8367732 L11.3493399,7.56620893 C13.0145458,6.63805597 13.0145458,5.11071566 11.3493399,4.17668832 L5.51441064,0.911998398 L5.39812948,0.848848751 Z" id="path78"></path>
                                </g>
                                <g id="g80" transform="translate(11.954736, 7.798230)" fill="url(#linearGradient-3)">
                                    <path d="M20.4222523,10.1921736 L15.3848926,15.154561 L0.518792891,0.508248559 C1.07187382,-0.0645040585 1.97379824,-0.133528092 2.99945775,0.439224525 L20.4222523,10.1921736" id="path88"></path>
                                </g>
                                <g id="g90" transform="translate(11.954736, 22.952791)" fill="url(#linearGradient-4)">
                                    <path d="M20.4222523,4.96238742 L2.99945775,14.7153365 C1.97379824,15.2822147 1.07187382,15.2131907 0.518792891,14.6404381 L15.3848926,0 L20.4222523,4.96238742 Z" id="path104"></path>
                                </g>
                            </g>
                        </g>
                    </g>
                </g>
            </g>
        </g>
    </g>
</svg>